<svg xmlns="http://www.w3.org/2000/svg" width="210" height="66" viewBox="0 0 210 66">
    <g fill="none" fill-rule="evenodd">
        <rect width="209" height="64" x=".5" y="1.427" fill="#006F85" stroke="#006F85" rx="4"/>
        <path fill="#FFF" fill-rule="nonzero" d="M56.642 32.116c-.047-5.114 4.31-7.603 4.51-7.718-2.468-3.496-6.294-3.974-7.638-4.012-3.213-.328-6.33 1.868-7.966 1.868-1.67 0-4.19-1.836-6.906-1.782-3.495.052-6.765 2.018-8.559 5.071-3.701 6.226-.94 15.374 2.605 20.406 1.774 2.466 3.847 5.216 6.56 5.119 2.654-.105 3.646-1.643 6.849-1.643 3.174 0 4.105 1.643 6.872 1.58 2.848-.042 4.642-2.475 6.354-4.961 2.05-2.823 2.873-5.607 2.905-5.75-.065-.022-5.53-2.05-5.586-8.178zm-5.227-15.04c1.428-1.735 2.405-4.094 2.133-6.489-2.066.09-4.65 1.389-6.138 3.085-1.316 1.495-2.492 3.945-2.189 6.25 2.322.167 4.705-1.139 6.194-2.846zM90.76 48.207h-2.964l-1.624-5.113h-5.645l-1.547 5.113h-2.887l5.594-17.406h3.455l5.618 17.406zm-5.078-7.258l-1.469-4.545c-.155-.464-.447-1.558-.876-3.279h-.052c-.172.74-.448 1.834-.825 3.28l-1.444 4.544h4.666zm19.436.828c0 2.135-.578 3.822-1.736 5.06-1.037 1.103-2.325 1.654-3.862 1.654-1.659 0-2.852-.593-3.577-1.78v6.585H93.16V39.781c0-1.34-.035-2.715-.103-4.125h2.448l.155 1.99h.052c.928-1.5 2.337-2.249 4.227-2.249 1.478 0 2.712.585 3.699 1.755.985 1.173 1.48 2.714 1.48 4.625zm-2.835.102c0-1.221-.274-2.229-.825-3.023-.602-.825-1.41-1.238-2.423-1.238-.687 0-1.311.23-1.869.684-.558.458-.924 1.055-1.095 1.796-.076.277-.12.562-.13.849v2.094c0 .911.28 1.682.84 2.312.558.628 1.284.943 2.177.943 1.048 0 1.864-.407 2.447-1.214.585-.81.878-1.877.878-3.203zm17.244-.102c0 2.135-.578 3.822-1.736 5.06-1.038 1.103-2.325 1.654-3.863 1.654-1.66 0-2.853-.593-3.577-1.78v6.585h-2.784V39.781c0-1.34-.035-2.715-.103-4.125h2.448l.155 1.99h.053c.926-1.5 2.335-2.249 4.227-2.249 1.476 0 2.71.585 3.7 1.755.984 1.173 1.48 2.714 1.48 4.625zm-2.837.102c0-1.221-.275-2.229-.826-3.023-.602-.825-1.408-1.238-2.42-1.238-.687 0-1.311.23-1.871.684-.56.458-.923 1.055-1.094 1.796-.085.345-.131.626-.131.849v2.094c0 .911.28 1.682.837 2.312.559.627 1.284.943 2.18.943 1.05 0 1.866-.407 2.448-1.214.585-.81.877-1.877.877-3.203zm18.947 1.445c0 1.482-.517 2.687-1.545 3.617-1.13 1.015-2.709 1.524-4.732 1.524-1.87 0-3.368-.361-4.499-1.085l.644-2.324c1.22.725 2.561 1.086 4.02 1.086 1.05 0 1.866-.238 2.448-.71.584-.474.88-1.107.88-1.897 0-.708-.245-1.3-.724-1.783-.482-.481-1.278-.93-2.397-1.342-3.042-1.136-4.564-2.799-4.564-4.986 0-1.428.538-2.597 1.61-3.511 1.074-.913 2.497-1.37 4.267-1.37 1.581 0 2.898.276 3.944.827l-.698 2.273c-.985-.534-2.096-.8-3.338-.8-.982 0-1.752.242-2.303.723-.464.43-.699.955-.699 1.577 0 .687.268 1.257.8 1.704.463.412 1.306.861 2.525 1.342 1.496.605 2.596 1.308 3.3 2.117.708.808 1.06 1.816 1.06 3.018zm9.226-5.575h-3.068v6.093c0 1.55.54 2.323 1.624 2.323.497 0 .91-.042 1.236-.13l.077 2.118c-.548.206-1.27.31-2.164.31-1.1 0-1.959-.337-2.579-1.01-.617-.672-.928-1.798-.928-3.383v-6.327h-1.828v-2.092h1.828v-2.298l2.734-.827v3.125h3.068v2.098zm13.814 4.08c0 1.928-.55 3.512-1.65 4.75-1.15 1.276-2.68 1.912-4.587 1.912-1.841 0-3.305-.611-4.396-1.831-1.091-1.223-1.637-2.764-1.637-4.623 0-1.944.564-3.538 1.688-4.776 1.127-1.24 2.644-1.86 4.55-1.86 1.839 0 3.316.612 4.433 1.834 1.068 1.185 1.6 2.715 1.6 4.593zm-2.885.063c0-1.15-.248-2.136-.745-2.961-.584-.997-1.42-1.495-2.502-1.495-1.115 0-1.97.498-2.552 1.495-.499.825-.747 1.829-.747 3.014 0 1.15.248 2.14.747 2.962.602.997 1.441 1.495 2.529 1.495 1.064 0 1.898-.509 2.501-1.52.512-.845.77-1.837.77-2.99zm11.936-3.784a4.835 4.835 0 0 0-.877-.077c-.98 0-1.736.369-2.269 1.112-.462.654-.695 1.48-.695 2.479v6.585h-2.783v-8.598a88.36 88.36 0 0 0-.08-3.952h2.424l.101 2.402h.077c.295-.826.758-1.491 1.392-1.99a3.361 3.361 0 0 1 2.012-.672c.257 0 .49.018.696.051l.002 2.66zm12.448 3.23c.007.424-.027.847-.102 1.264h-8.35c.032 1.24.436 2.19 1.212 2.844.703.583 1.613.876 2.73.876 1.237 0 2.365-.196 3.38-.592l.436 1.934c-1.186.518-2.585.776-4.2.776-1.943 0-3.468-.573-4.577-1.716-1.107-1.145-1.662-2.683-1.662-4.61 0-1.89.516-3.467 1.548-4.724 1.081-1.342 2.542-2.013 4.38-2.013 1.806 0 3.172.671 4.1 2.013.736 1.064 1.105 2.382 1.105 3.948zm-2.654-.724c.02-.828-.163-1.54-.54-2.143-.482-.777-1.224-1.164-2.217-1.164-.91 0-1.652.378-2.216 1.136-.463.603-.739 1.328-.823 2.169l5.796.002zM79.918 24.2c-.772 0-1.439-.037-1.994-.1v-8.23a15.336 15.336 0 0 1 2.347-.173c3.18 0 4.644 1.538 4.644 4.047 0 2.893-1.73 4.456-4.997 4.456zm.465-7.448c-.43 0-.794.025-1.097.087v6.256c.163.025.478.037.92.037 2.083 0 3.27-1.167 3.27-3.351 0-1.948-1.074-3.03-3.093-3.03zm9.094 7.51c-1.792 0-2.953-1.316-2.953-3.102 0-1.863 1.186-3.19 3.055-3.19 1.766 0 2.953 1.253 2.953 3.091 0 1.885-1.224 3.202-3.055 3.202zm.052-5.313c-.984 0-1.615.906-1.615 2.172 0 1.242.644 2.148 1.602 2.148.959 0 1.602-.968 1.602-2.173 0-1.228-.63-2.147-1.589-2.147zm13.22-.855l-1.918 6.032h-1.25l-.794-2.62a19.598 19.598 0 0 1-.492-1.948h-.026c-.1.658-.29 1.316-.492 1.948l-.845 2.62h-1.263l-1.805-6.032h1.4l.695 2.867c.164.683.302 1.328.416 1.937h.026c.1-.508.264-1.142.505-1.924l.871-2.88h1.11l.834 2.819c.202.683.365 1.353.493 1.986h.036c.089-.62.228-1.279.416-1.986l.745-2.818 1.338-.001zm7.061 6.032h-1.363v-3.464c0-1.067-.416-1.601-1.236-1.601-.808 0-1.363.683-1.363 1.477v3.588h-1.363v-4.308c0-.534-.013-1.105-.05-1.726h1.198l.064.931h.038c.367-.644 1.11-1.054 1.944-1.054 1.287 0 2.132.969 2.132 2.545l-.001 3.612zm3.758 0h-1.364v-8.8h1.364v8.8zm4.968.137c-1.79 0-2.953-1.317-2.953-3.103 0-1.863 1.186-3.19 3.053-3.19 1.768 0 2.953 1.253 2.953 3.091.002 1.885-1.223 3.202-3.053 3.202zm.051-5.314c-.984 0-1.615.906-1.615 2.172 0 1.242.645 2.148 1.6 2.148.96 0 1.603-.968 1.603-2.173.001-1.228-.628-2.147-1.588-2.147zm8.375 5.177l-.099-.695h-.036c-.416.56-1.023.832-1.793.832-1.099 0-1.879-.758-1.879-1.776 0-1.489 1.312-2.259 3.584-2.259v-.11c0-.795-.428-1.193-1.273-1.193-.605 0-1.136.15-1.602.448l-.277-.882c.567-.348 1.274-.522 2.105-.522 1.602 0 2.41.832 2.41 2.496v2.222c0 .609.028 1.08.089 1.44l-1.229-.001zm-.187-3.005c-1.514 0-2.273.36-2.273 1.217 0 .633.391.942.935.942.693 0 1.338-.52 1.338-1.228v-.93zm7.945 3.005l-.064-.968h-.038c-.391.731-1.049 1.105-1.968 1.105-1.479 0-2.574-1.28-2.574-3.08 0-1.886 1.136-3.215 2.686-3.215.82 0 1.401.273 1.729.82h.027v-3.462h1.364V22.5c0 .583.015 1.13.051 1.626h-1.213zm-.202-3.55c0-.844-.568-1.564-1.435-1.564-1.01 0-1.628.881-1.628 2.122 0 1.216.64 2.05 1.6 2.05.857 0 1.463-.734 1.463-1.602v-1.006zm10.013 3.687c-1.791 0-2.952-1.317-2.952-3.103 0-1.863 1.186-3.19 3.053-3.19 1.767 0 2.953 1.253 2.953 3.091.001 1.885-1.222 3.202-3.054 3.202zm.05-5.314c-.983 0-1.613.906-1.613 2.172 0 1.242.643 2.148 1.6 2.148.96 0 1.602-.968 1.602-2.173.003-1.228-.628-2.147-1.589-2.147zm10.332 5.177h-1.364v-3.464c0-1.067-.416-1.601-1.236-1.601-.808 0-1.362.683-1.362 1.477v3.588h-1.364v-4.308c0-.534-.013-1.105-.05-1.726h1.199l.063.931h.038c.365-.644 1.11-1.055 1.943-1.055 1.287 0 2.133.968 2.133 2.544v3.614zm9.169-5.027h-1.5v2.93c0 .745.263 1.117.794 1.117.24 0 .442-.026.604-.063l.038 1.018c-.264.1-.618.15-1.057.15-1.074 0-1.716-.583-1.716-2.11v-3.042h-.895v-1.005h.895v-1.106l1.338-.397v1.501h1.499V19.1zm7.214 5.027h-1.362v-3.438c0-1.08-.414-1.626-1.236-1.626-.706 0-1.364.472-1.364 1.427v3.637h-1.362v-8.8h1.362v3.623h.027c.43-.657 1.05-.98 1.844-.98 1.298 0 2.09.992 2.09 2.569v3.588zm7.39-2.694h-4.089c.026 1.142.795 1.787 1.933 1.787.604 0 1.16-.1 1.652-.285l.212.93c-.58.249-1.262.373-2.057.373-1.918 0-3.053-1.192-3.053-3.04 0-1.85 1.162-3.24 2.9-3.24 1.566 0 2.55 1.142 2.55 2.867.008.204-.007.408-.047.608zm-1.249-.955c0-.932-.477-1.59-1.348-1.59-.783 0-1.402.671-1.49 1.59h2.838z"/>
    </g>
</svg>
