<?xml version="1.0" encoding="UTF-8"?>
<svg xmlns="http://www.w3.org/2000/svg" xmlns:xlink="http://www.w3.org/1999/xlink" xmlns:svgjs="http://svgjs.com/svgjs" version="1.1" width="512" height="512" x="0" y="0" viewBox="0 0 64 64" style="enable-background:new 0 0 512 512" xml:space="preserve" class="">
  <g>
    <path xmlns="http://www.w3.org/2000/svg" d="m49.967 20.64c-.457-.572-.947-1.128-1.457-1.653l-1.435 1.392c.465.48.913.988 1.33 1.51z" fill="#08edc2" data-original="#000000" style=""/>
    <path xmlns="http://www.w3.org/2000/svg" d="m50.606 25.253 1.771-.929c-.342-.651-.718-1.291-1.117-1.9l-1.673 1.1c.364.552.707 1.135 1.019 1.729z" fill="#08edc2" data-original="#000000" style=""/>
    <path xmlns="http://www.w3.org/2000/svg" d="m46.9 17.48c-.558-.474-1.144-.927-1.743-1.345l-1.145 1.638c.546.383 1.082.8 1.592 1.231z" fill="#08edc2" data-original="#000000" style=""/>
    <path xmlns="http://www.w3.org/2000/svg" d="m52.9 32.92 1.991-.2c-.072-.733-.18-1.467-.321-2.183l-1.962.387c.126.657.225 1.327.292 1.996z" fill="#08edc2" data-original="#000000" style=""/>
    <path xmlns="http://www.w3.org/2000/svg" d="m52.123 28.976 1.916-.574c-.209-.7-.456-1.4-.732-2.078l-1.853.754c.253.622.478 1.258.669 1.898z" fill="#08edc2" data-original="#000000" style=""/>
    <path xmlns="http://www.w3.org/2000/svg" d="m52.912 36.941 1.991.183c.064-.7.1-1.415.1-2.2l-2.003.076c0 .648-.03 1.3-.088 1.941z" fill="#08edc2" data-original="#000000" style=""/>
    <path xmlns="http://www.w3.org/2000/svg" d="m27.1 57.476c.641.139 1.295.252 1.945.335l.253-1.983c-.592-.077-1.189-.18-1.773-.307z" fill="#08edc2" data-original="#000000" style=""/>
    <path xmlns="http://www.w3.org/2000/svg" d="m31.09 55.98-.087 2q.497.02.997.02c.327 0 .652-.007.977-.021l-.085-2c-.599.028-1.205.027-1.802.001z" fill="#08edc2" data-original="#000000" style=""/>
    <path xmlns="http://www.w3.org/2000/svg" d="m23.33 56.31c.61.248 1.235.472 1.858.664l.59-1.911c-.567-.175-1.137-.379-1.694-.606z" fill="#08edc2" data-original="#000000" style=""/>
    <path xmlns="http://www.w3.org/2000/svg" d="m38.2 55.069.589 1.911c.626-.193 1.251-.417 1.859-.664l-.748-1.852c-.555.225-1.126.429-1.7.605z" fill="#08edc2" data-original="#000000" style=""/>
    <path xmlns="http://www.w3.org/2000/svg" d="m34.688 55.829.253 1.984c.649-.083 1.3-.2 1.945-.334l-.423-1.955c-.586.127-1.183.23-1.775.305z" fill="#08edc2" data-original="#000000" style=""/>
    <path xmlns="http://www.w3.org/2000/svg" d="m11.087 36.918c-.058-.633-.087-1.279-.087-1.918v-.1l-2 .1c0 .7.032 1.405.1 2.1z" fill="#08edc2" data-original="#000000" style=""/>
    <path xmlns="http://www.w3.org/2000/svg" d="m12.552 27.062-1.852-.757c-.276.676-.523 1.375-.734 2.077l1.916.575c.192-.641.418-1.278.67-1.895z" fill="#08edc2" data-original="#000000" style=""/>
    <path xmlns="http://www.w3.org/2000/svg" d="m20 17.766-1.144-1.64c-.6.42-1.189.873-1.745 1.346l1.289 1.528c.512-.437 1.047-.851 1.6-1.234z" fill="#08edc2" data-original="#000000" style=""/>
    <path xmlns="http://www.w3.org/2000/svg" d="m11.4 30.908-1.964-.388c-.142.718-.25 1.452-.323 2.18l1.991.2c.065-.667.165-1.337.296-1.992z" fill="#08edc2" data-original="#000000" style=""/>
    <path xmlns="http://www.w3.org/2000/svg" d="m14.421 23.506-1.672-1.1c-.4.613-.778 1.252-1.118 1.9l1.77.931c.311-.588.654-1.171 1.02-1.731z" fill="#08edc2" data-original="#000000" style=""/>
    <path xmlns="http://www.w3.org/2000/svg" d="m16.934 20.371-1.434-1.394c-.509.523-1 1.079-1.458 1.65l1.56 1.252c.42-.523.868-1.03 1.332-1.508z" fill="#08edc2" data-original="#000000" style=""/>
    <path xmlns="http://www.w3.org/2000/svg" d="m52 39a10.959 10.959 0 0 0 -8.149 3.638l-6.523-4.892a5.982 5.982 0 0 0 -4.328-8.656v-4.141a11 11 0 1 0 -2 0v4.141a5.983 5.983 0 0 0 -4.328 8.657l-6.522 4.891a11.033 11.033 0 1 0 1.2 1.6l6.523-4.891a5.971 5.971 0 0 0 8.252 0l6.523 4.891a10.989 10.989 0 1 0 9.352-5.238zm-44 19.05v-2.05a4 4 0 0 1 8 0v2.05a8.9 8.9 0 0 1 -8 0zm2-10.05v-1a2 2 0 0 1 4 0v1a2 2 0 0 1 -4 0zm8 8.689v-.689a6 6 0 0 0 -3.107-5.253 3.978 3.978 0 0 0 1.107-2.747v-1a4 4 0 0 0 -8 0v1a3.978 3.978 0 0 0 1.107 2.747 6 6 0 0 0 -3.107 5.253v.689a9 9 0 1 1 12 0zm12-44.689v-1a2 2 0 0 1 4 0v1a2 2 0 0 1 -4 0zm2 4a4 4 0 0 1 4 4v2.05a8.9 8.9 0 0 1 -8 0v-2.05a4 4 0 0 1 4-4zm-9-2a9 9 0 1 1 15 6.689v-.689a6 6 0 0 0 -3.107-5.253 3.978 3.978 0 0 0 1.107-2.747v-1a4 4 0 0 0 -8 0v1a3.978 3.978 0 0 0 1.107 2.747 6 6 0 0 0 -3.107 5.253v.689a8.971 8.971 0 0 1 -3-6.689zm9 25a4 4 0 1 1 4-4 4 4 0 0 1 -4 4zm16 19.05v-2.05a4 4 0 0 1 8 0v2.05a8.9 8.9 0 0 1 -8 0zm2-10.05v-1a2 2 0 0 1 4 0v1a2 2 0 0 1 -4 0zm8 8.689v-.689a6 6 0 0 0 -3.107-5.253 3.978 3.978 0 0 0 1.107-2.747v-1a4 4 0 0 0 -8 0v1a3.978 3.978 0 0 0 1.107 2.747 6 6 0 0 0 -3.107 5.253v.689a9 9 0 1 1 12 0z" fill="#08edc2" data-original="#000000" style=""/>
  </g>
</svg>
