<svg xmlns="http://www.w3.org/2000/svg" xmlns:xlink="http://www.w3.org/1999/xlink" width="210" height="65" viewBox="0 0 210 65">
    <defs>
        <path id="a" d="M27.4 14.583l-8.717-4.89L1.871.261C.937-.262.007.055.007 1.15v38.427c0 .82.665 1.174 1.476.72.81-.456 17.2-9.65 17.2-9.65l8.716-4.889 8.378-4.7c.983-.551.889-1.307.06-1.741-.83-.435-8.438-4.733-8.438-4.733z"/>
        <linearGradient id="b" x1="50%" x2="50%" y1="0%" y2="100%">
            <stop offset="0%" stop-color="#257CB0"/>
            <stop offset="28.6%" stop-color="#4A93B5"/>
            <stop offset="76.7%" stop-color="#78BCBB"/>
            <stop offset="100%" stop-color="#89CFBD"/>
        </linearGradient>
        <path id="d" d="M27.4 14.583l-8.717-4.89L1.871.261C.937-.262.007.055.007 1.15v38.427c0 .82.665 1.174 1.476.72.81-.456 17.2-9.65 17.2-9.65l8.716-4.889 8.378-4.7c.983-.551.889-1.307.06-1.741-.83-.435-8.438-4.733-8.438-4.733z"/>
        <linearGradient id="e" x1=".001%" x2="100.001%" y1="49.999%" y2="49.999%">
            <stop offset="0%" stop-color="#52C1AD"/>
            <stop offset="100%" stop-color="#DEE89A"/>
        </linearGradient>
        <path id="g" d="M27.4 14.583l-8.717-4.89L1.871.261C.937-.262.007.055.007 1.15v38.427c0 .82.665 1.174 1.476.72.81-.456 17.2-9.65 17.2-9.65l8.716-4.889 8.378-4.7c.983-.551.889-1.307.06-1.741-.83-.435-8.438-4.733-8.438-4.733z"/>
        <linearGradient id="h" x1="50%" x2="50%" y1="0%" y2="100%">
            <stop offset="0%" stop-color="#EC413D"/>
            <stop offset="16.7%" stop-color="#DA4452"/>
            <stop offset="57.5%" stop-color="#B0487A"/>
            <stop offset="86.2%" stop-color="#954A92"/>
            <stop offset="100%" stop-color="#8A4A9D"/>
        </linearGradient>
        <path id="j" d="M27.4 14.583l-8.717-4.89L1.871.261C.937-.262.007.055.007 1.15v38.427c0 .82.665 1.174 1.476.72.81-.456 17.2-9.65 17.2-9.65l8.716-4.889 8.378-4.7c.983-.551.889-1.307.06-1.741-.83-.435-8.438-4.733-8.438-4.733z"/>
        <linearGradient id="k" x1="50.001%" x2="50.001%" y1=".001%" y2="99.997%">
            <stop offset="0%" stop-color="#F58879"/>
            <stop offset="11.9%" stop-color="#F69079"/>
            <stop offset="71.3%" stop-color="#FCB877"/>
            <stop offset="100%" stop-color="#FEC874"/>
        </linearGradient>
    </defs>
    <g fill="none" fill-rule="evenodd">
        <rect width="209" height="64" x=".5" y=".5" fill="#006F85" stroke="#006F85" rx="4"/>
        <g transform="translate(18.305 13.33)">
            <mask id="c" fill="#fff">
                <use xlink:href="#a"/>
            </mask>
            <path fill="url(#b)" fill-rule="nonzero" d="M.008-.632v41.604L21.6 20.17z" mask="url(#c)"/>
        </g>
        <g transform="translate(18.305 13.33)">
            <mask id="f" fill="#fff">
                <use xlink:href="#d"/>
            </mask>
            <path fill="url(#e)" fill-rule="nonzero" d="M27.4 14.583l-8.717-4.89L.008-.783v.151L21.6 20.17z" mask="url(#f)"/>
        </g>
        <g transform="translate(18.305 13.33)">
            <mask id="i" fill="#fff">
                <use xlink:href="#g"/>
            </mask>
            <path fill="url(#h)" fill-rule="nonzero" d="M.008 40.972v.151l18.675-10.477 8.716-4.89L21.6 20.17z" mask="url(#i)"/>
        </g>
        <g transform="translate(18.305 13.33)">
            <mask id="l" fill="#fff">
                <use xlink:href="#j"/>
            </mask>
            <path fill="url(#k)" fill-rule="nonzero" d="M27.4 14.583l-5.8 5.587 5.799 5.587 9.961-5.587z" mask="url(#l)"/>
        </g>
        <path fill="#FFF" fill-rule="nonzero" d="M160.294 47.48c-.811 0-1.551-.145-2.222-.435a4.165 4.165 0 0 1-1.687-1.341h-.136c.09.706.136 1.376.136 2.009v4.978H154.5v-17.53h1.533l.26 1.656h.092c.485-.663 1.05-1.14 1.693-1.435.644-.295 1.383-.442 2.215-.442 1.652 0 2.926.549 3.824 1.645.897 1.096 1.346 2.635 1.346 4.614 0 1.987-.456 3.53-1.368 4.632-.913 1.1-2.18 1.65-3.801 1.65zm-.273-10.984c-1.273 0-2.193.343-2.761 1.027-.568.685-.86 1.774-.875 3.268v.408c0 1.7.291 2.917.875 3.65.583.732 1.52 1.097 2.806 1.097 1.076 0 1.92-.422 2.53-1.269.608-.846.913-2.012.913-3.5 0-1.508-.305-2.666-.914-3.472-.61-.806-1.468-1.209-2.574-1.209zm9.81 10.764h-1.886V30.082h1.886V47.26zm10.843 0l-.375-1.723h-.09c-.622.76-1.24 1.273-1.858 1.54-.618.27-1.389.404-2.312.404-1.235 0-2.202-.31-2.903-.928-.701-.617-1.051-1.497-1.051-2.638 0-2.443 2.01-3.723 6.033-3.842l2.114-.066v-.75c0-.95-.21-1.652-.631-2.104-.42-.453-1.094-.679-2.017-.679-1.038 0-2.212.31-3.522.927l-.58-1.402a9.02 9.02 0 0 1 2.018-.761 8.974 8.974 0 0 1 2.198-.276c1.484 0 2.585.32 3.3.96.716.64 1.074 1.667 1.074 3.08v8.257h-1.397zm-4.26-1.291c1.173 0 2.095-.313 2.766-.939.67-.625 1.006-1.501 1.006-2.628V41.31l-1.887.076c-1.5.053-2.58.278-3.244.68-.662.401-.994 1.025-.994 1.872 0 .662.206 1.166.62 1.511.413.347.99.52 1.733.52zm6.753-10.808h2.022l2.727 6.9c.598 1.575.97 2.712 1.114 3.411h.09c.1-.376.306-1.017.62-1.927.314-.91 1.343-3.703 3.084-8.384h2.024l-5.352 13.777c-.53 1.362-1.15 2.328-1.859 2.899-.707.57-1.577.854-2.606.854a7.827 7.827 0 0 1-1.705-.187v-1.468c.416.088.882.133 1.398.133 1.295 0 2.218-.707 2.772-2.12l.693-1.722-5.022-12.166zm-57.813 1.124c.6.481 1.85 1.493 1.85 3.417 0 1.872-1.095 2.76-2.189 3.593-.339.329-.73.684-.73 1.241 0 .556.391.86.679 1.088l.938.707c1.146.937 2.186 1.798 2.186 3.545 0 2.378-2.37 4.782-6.85 4.782-3.777 0-5.599-1.746-5.599-3.62 0-.91.467-2.2 2.006-3.087 1.614-.962 3.803-1.087 4.974-1.165-.365-.455-.781-.936-.781-1.719 0-.43.13-.683.26-.988a9.7 9.7 0 0 1-.834.051c-2.76 0-4.323-2-4.323-3.972 0-1.165.548-2.456 1.666-3.391 1.486-1.19 3.257-1.393 4.664-1.393h5.365l-1.667.911h-1.615zm-1.85 11.237c-.208-.027-.339-.027-.598-.027-.234 0-1.643.052-2.735.407-.573.201-2.24.808-2.24 2.606 0 1.796 1.798 3.089 4.585 3.089 2.499 0 3.829-1.167 3.829-2.735 0-1.293-.86-1.973-2.84-3.34zm.756-4.81c.599-.582.65-1.391.65-1.847 0-1.822-1.12-4.656-3.28-4.656-.679 0-1.407.329-1.824.835-.442.532-.574 1.214-.574 1.873 0 1.695 1.016 4.505 3.257 4.505.651 0 1.353-.304 1.771-.71zm-15.303 4.405c-4.135 0-6.345-3.134-6.345-5.964 0-3.31 2.782-6.138 6.736-6.138 3.82 0 6.214 2.904 6.214 5.962 0 2.98-2.365 6.14-6.605 6.14zm3.25-2.047c.625-.809.78-1.82.78-2.805 0-2.224-1.091-6.468-4.316-6.468-.858 0-1.716.329-2.34.86-1.014.883-1.197 1.996-1.197 3.083 0 2.5 1.274 6.617 4.422 6.617 1.014 0 2.054-.48 2.65-1.287zm-17.345 2.047c-4.135 0-6.346-3.134-6.346-5.964 0-3.31 2.783-6.138 6.736-6.138 3.822 0 6.214 2.904 6.214 5.962 0 2.98-2.365 6.14-6.604 6.14zm3.25-2.047c.625-.809.781-1.82.781-2.805 0-2.224-1.093-6.468-4.318-6.468-.857 0-1.716.329-2.34.86-1.014.883-1.196 1.996-1.196 3.083 0 2.5 1.274 6.617 4.422 6.617 1.014 0 2.054-.48 2.652-1.287zM86.53 46.72l-3.74.839c-1.517.229-2.876.43-4.313.43-7.217 0-9.961-5.156-9.961-9.195 0-4.928 3.895-9.499 10.563-9.499 1.412 0 2.77.203 3.999.533 1.96.534 2.876 1.194 3.451 1.575l-2.17 2.007-.915.202.653-1.016c-.888-.838-2.51-2.387-5.595-2.387-4.13 0-7.243 3.05-7.243 7.494 0 4.775 3.557 9.27 9.255 9.27 1.675 0 2.536-.329 3.32-.634V42.25l-3.946.203 2.09-1.093h5.544l-.68.634c-.184.154-.21.205-.261.406-.028.23-.052.967-.052 1.22v3.1z"/>
        <path fill="#FFF" fill-rule="nonzero" d="M133.618 45.99c-.863-.077-1.044-.229-1.044-1.22V30.391l.014-.163c.105-.89.367-1.041 1.178-1.5h-3.74l-1.961.915h1.998v.012l-.001-.01V45.33c0 .507-.103.584-.705 1.345h4.628l.967-.557c-.444-.053-.889-.077-1.334-.128zm10.639.233c-.285.151-.57.329-.855.454-.859.378-1.741.48-2.522.48-.828 0-2.128-.053-3.453-.985-1.842-1.262-2.647-3.432-2.647-5.323 0-3.91 3.271-5.827 5.946-5.827.935 0 1.896.227 2.675.707 1.297.831 1.635 1.916 1.815 2.496l-6.1 2.398-2 .15c.649 3.205 2.882 5.07 5.35 5.07 1.323 0 2.284-.453 3.167-.881l-1.376 1.26zm-2.44-7.519c.492-.176.752-.328.752-.68 0-1.009-1.168-2.17-2.571-2.17-1.04 0-2.986.782-2.986 3.506 0 .43.052.883.079 1.339l4.726-1.995zm4.946-3.51v1.665h-.209v-1.664h-.567v-.173h1.342v.173h-.566zm2.335 1.665v-1.68h-.01l-.527 1.68h-.163l-.532-1.68h-.007v1.68h-.189v-1.837h.324l.482 1.485h.007l.474-1.485h.328v1.837h-.187zM75.681 23.235H74.12c0-.188-.149-.72-.445-1.599h-2.256c-.306.864-.46 1.397-.46 1.6H69.49c0-.112.38-1.024 1.14-2.736.76-1.713 1.14-2.656 1.14-2.83h1.846c0 .162.344 1.092 1.033 2.789s1.033 2.622 1.033 2.776zm-2.256-2.415c-.556-1.47-.835-2.265-.835-2.385h-.078c0 .11-.288.906-.864 2.385h1.777zm8.553 2.415h-1.206c0-.117-.448-.733-1.343-1.85-.937-1.177-1.471-1.982-1.601-2.415h-.078c.08.624.122 1.188.122 1.692 0 .704.023 1.562.068 2.574H76.74c.048-.884.073-1.854.073-2.911 0-1.04-.025-1.925-.073-2.654h1.45c0 .15.401.754 1.206 1.808.856 1.12 1.347 1.879 1.474 2.278h.073a14.152 14.152 0 0 1-.117-1.71c0-.772-.023-1.564-.068-2.376h1.22a42.25 42.25 0 0 0-.067 2.654c0 1.07.022 2.04.068 2.91zm7.077-2.975c0 .81-.297 1.516-.889 2.12-.593.605-1.423.906-2.49.906-.482 0-1.146-.017-1.993-.051.043-.86.064-1.831.064-2.91 0-1.038-.021-1.923-.064-2.655h.855c.14 0 .348-.005.625-.013.276-.008.457-.013.542-.013 1.175 0 2.027.257 2.556.77.53.513.794 1.128.794 1.846zm-1.333.184c0-.547-.182-1.008-.547-1.383-.364-.375-.921-.562-1.67-.562-.14 0-.332.013-.576.039.032.57.048 1.165.048 1.786 0 .681.017 1.357.049 2.026.209.037.421.056.635.056.7 0 1.218-.19 1.555-.571.336-.38.506-.844.506-1.391zm7.859 2.791h-1.446c-.377-1.008-.667-1.631-.869-1.868-.202-.236-.527-.354-.976-.354-.19 0-.37.001-.542.004 0 .732.015 1.472.044 2.218h-1.357c.042-.86.063-1.83.063-2.91 0-1.037-.02-1.922-.063-2.655h.844c.098 0 .302-.004.613-.013.311-.008.598-.012.862-.012 1.494 0 2.241.447 2.241 1.342 0 .71-.426 1.203-1.279 1.483v.064c.329.08.617.305.864.673.247.369.58 1.045 1 2.028zm-1.831-3.932c0-.567-.417-.851-1.25-.851-.306 0-.577.02-.81.06.035.441.053 1.017.053 1.727.18.006.33.008.454.008 1.035 0 1.553-.314 1.553-.944zm8.83 1.047c0 .875-.306 1.6-.918 2.176-.612.575-1.37.863-2.27.863-.86 0-1.58-.264-2.159-.793-.58-.528-.869-1.2-.869-2.015 0-.874.306-1.6.918-2.176.612-.575 1.369-.863 2.27-.863.86 0 1.58.263 2.159.79.58.528.869 1.2.869 2.018zm-1.347.124c0-.596-.174-1.079-.523-1.45a1.7 1.7 0 0 0-1.289-.555c-.475 0-.879.187-1.21.56-.332.373-.5.845-.5 1.415 0 .592.176 1.075.526 1.447.35.372.778.558 1.287.558.475 0 .879-.188 1.21-.563.332-.374.499-.845.499-1.412zm4.108 2.761h-1.382c.042-.883.064-1.853.064-2.91 0-1.04-.022-1.926-.064-2.655h1.382a46.363 46.363 0 0 0-.064 2.655c0 1.074.022 2.044.064 2.91zm7.077-2.975c0 .81-.296 1.516-.888 2.12-.593.605-1.423.906-2.49.906-.483 0-1.147-.017-1.993-.051.042-.86.064-1.831.064-2.91a47.01 47.01 0 0 0-.064-2.655h.854c.14 0 .349-.005.625-.013.277-.008.458-.013.542-.013 1.175 0 2.027.257 2.557.77.529.513.793 1.128.793 1.846zm-1.332.184c0-.547-.183-1.008-.547-1.383-.365-.375-.922-.562-1.67-.562-.14 0-.332.013-.577.039.033.57.049 1.165.049 1.786 0 .681.016 1.357.049 2.026.208.037.421.056.634.056.7 0 1.218-.19 1.555-.571.337-.38.507-.844.507-1.391zm10.722 2.791h-1.563c0-.188-.148-.72-.445-1.599h-2.256c-.306.864-.46 1.397-.46 1.6h-1.468c0-.112.38-1.024 1.14-2.736.76-1.713 1.14-2.656 1.14-2.83h1.846c0 .162.344 1.092 1.032 2.789.689 1.697 1.034 2.622 1.034 2.776zm-2.256-2.415c-.557-1.47-.836-2.265-.836-2.385h-.078c0 .11-.288.906-.864 2.385h1.778zm7.951-1.693c0 .681-.289 1.184-.867 1.51-.577.324-1.286.487-2.126.487-.153 0-.262-.003-.327-.009 0 .536.017 1.242.053 2.12h-1.372c.042-.823.064-1.794.064-2.91 0-1.026-.022-1.911-.064-2.655h.85c.12 0 .35-.004.693-.013.342-.008.637-.012.888-.012.619 0 1.141.122 1.568.367.426.245.64.617.64 1.115zm-1.26.235c0-.61-.462-.914-1.386-.914a4.48 4.48 0 0 0-.733.064c.036.538.054 1.148.054 1.83.081.005.176.008.283.008 1.189 0 1.783-.33 1.783-.988zm7.117-.235c0 .681-.29 1.184-.867 1.51-.577.324-1.287.487-2.127.487-.153 0-.261-.003-.327-.009 0 .536.018 1.242.054 2.12h-1.373c.043-.823.064-1.794.064-2.91 0-1.026-.021-1.911-.064-2.655h.85c.12 0 .351-.004.693-.013.342-.008.638-.012.889-.012.618 0 1.14.122 1.567.367.427.245.64.617.64 1.115zm-1.26.235c0-.61-.462-.914-1.387-.914a4.48 4.48 0 0 0-.732.064c.036.538.054 1.148.054 1.83.081.005.176.008.283.008 1.188 0 1.782-.33 1.782-.988zm10.835.988c0 .875-.306 1.6-.918 2.176-.613.576-1.37.863-2.27.863-.86 0-1.58-.264-2.159-.793-.58-.528-.87-1.2-.87-2.015 0-.874.307-1.6.919-2.176.612-.575 1.37-.863 2.27-.863.86 0 1.58.263 2.159.79.579.528.869 1.2.869 2.018zm-1.348.124c0-.596-.174-1.079-.522-1.45a1.7 1.7 0 0 0-1.29-.555c-.475 0-.878.187-1.21.56-.332.373-.498.845-.498 1.415 0 .592.175 1.075.525 1.447.35.372.778.558 1.286.558.475 0 .88-.188 1.21-.563.333-.374.5-.845.5-1.412zm7.966 2.761h-1.206c0-.117-.447-.733-1.343-1.85-.937-1.177-1.471-1.982-1.6-2.415h-.08c.082.624.123 1.188.123 1.692 0 .704.023 1.562.068 2.574h-1.201a53.23 53.23 0 0 0 .073-2.911c0-1.04-.024-1.925-.073-2.654h1.45c0 .15.402.754 1.206 1.808.856 1.12 1.348 1.879 1.475 2.278h.073a14.144 14.144 0 0 1-.118-1.71c0-.772-.022-1.564-.068-2.376h1.221a42.284 42.284 0 0 0-.068 2.654c0 1.07.023 2.04.068 2.91z"/>
    </g>
</svg>
