<?xml version="1.0" encoding="UTF-8"?>
<svg xmlns="http://www.w3.org/2000/svg" xmlns:xlink="http://www.w3.org/1999/xlink" xmlns:svgjs="http://svgjs.com/svgjs" version="1.1" width="512" height="512" x="0" y="0" viewBox="0 0 512 512" style="enable-background:new 0 0 512 512" xml:space="preserve" class="">
  <g>
    <g xmlns="http://www.w3.org/2000/svg">
      <path d="m256 168.672c-103.957 0-188.531 84.575-188.531 188.531v53.594h37.469v-53.594c0-83.296 67.766-151.062 151.062-151.062s151.063 67.766 151.063 151.062v53.594h37.469v-53.594c-.001-103.956-84.576-188.531-188.532-188.531z" fill="#08edc2" data-original="#000000" style="" class=""/>
      <path d="m256 273.61c46.094 0 83.594 37.5 83.594 83.593v53.594h37.469v-53.594c0-66.754-54.309-121.062-121.063-121.062s-121.062 54.308-121.062 121.062v53.594h37.469v-53.594c0-46.093 37.5-83.593 83.593-83.593z" fill="#08edc2" data-original="#000000" style="" class=""/>
      <path d="m256 101.203c-68.38 0-132.668 26.628-181.02 74.981-48.351 48.352-74.98 112.639-74.98 181.019v53.594h37.469v-53.594c0-120.499 98.033-218.531 218.531-218.531 120.499 0 218.531 98.032 218.531 218.531v53.594h37.469v-53.594c0-68.38-26.629-132.667-74.98-181.019-48.353-48.352-112.64-74.981-181.02-74.981z" fill="#08edc2" data-original="#000000" style="" class=""/>
    </g>
  </g>
</svg>
