<?xml version="1.0" encoding="UTF-8"?>
<svg xmlns="http://www.w3.org/2000/svg" xmlns:xlink="http://www.w3.org/1999/xlink" xmlns:svgjs="http://svgjs.com/svgjs" version="1.1" width="512" height="512" x="0" y="0" viewBox="0 0 24 24" style="enable-background:new 0 0 512 512" xml:space="preserve" class="">
  <g>
    <g xmlns="http://www.w3.org/2000/svg">
      <g>
        <path d="m15.399 17c-.083 0-.166-.021-.242-.062l-3.157-1.746-3.157 1.745c-.169.094-.374.083-.53-.029-.156-.11-.236-.3-.205-.489l.608-3.731-2.573-2.638c-.131-.134-.176-.33-.117-.508.06-.178.214-.307.399-.335l3.537-.541 1.585-3.379c.166-.351.74-.351.906 0l1.585 3.379 3.537.541c.186.028.34.158.399.335.059.178.014.374-.117.508l-2.573 2.638.608 3.731c.031.189-.049.379-.205.489-.085.061-.186.092-.288.092zm-3.399-2.879c.083 0 .167.021.242.062l2.498 1.381-.483-2.964c-.025-.157.024-.316.136-.43l2.07-2.122-2.839-.434c-.165-.025-.307-.131-.378-.282l-1.246-2.655-1.246 2.657c-.071.151-.213.257-.378.282l-2.839.434 2.07 2.122c.111.114.161.273.136.43l-.483 2.962 2.498-1.381c.075-.041.159-.062.242-.062z" fill="#12efbb" data-original="#000000" style="" class=""/>
      </g>
    </g>
    <g xmlns="http://www.w3.org/2000/svg">
      <g>
        <path d="m12 24c-.043 0-.086-.005-.127-.017-.099-.025-9.873-2.703-9.873-11.804v-8.179c0-.209.131-.397.327-.469l9.5-3.5c.111-.041.234-.041.346 0l9.5 3.5c.196.072.327.26.327.469v8.179c0 9.102-9.774 11.779-9.873 11.805-.041.011-.084.016-.127.016zm-9-19.651v7.83c0 7.882 7.85 10.466 9 10.802 1.15-.336 9-2.92 9-10.802v-7.83l-9-3.316z" fill="#12efbb" data-original="#000000" style="" class=""/>
      </g>
    </g>
  </g>
</svg>
